Coordinates
version=1
nRows=14
nColumns=36
inDegrees=yes

Units are S.I. units (second, meters, Newtons, ...)
If the header above contains a line with 'inDegrees', this indicates whether rotational values are in degrees (yes) or radians (no).

endheader
time	pelvis_tilt	pelvis_list	pelvis_rotation	pelvis_tx	pelvis_ty	pelvis_tz	hip_flexion_r	hip_adduction_r	hip_rotation_r	knee_angle_r	knee_angle_r_beta	ankle_angle_r	subtalar_angle_r	mtp_angle_r	hip_flexion_l	hip_adduction_l	hip_rotation_l	knee_angle_l	knee_angle_l_beta	ankle_angle_l	subtalar_angle_l	mtp_angle_l	lumbar_extension	lumbar_bending	lumbar_rotation	arm_flex_r	arm_add_r	arm_rot_r	elbow_flex_r	pro_sup_r	arm_flex_l	arm_add_l	arm_rot_l	elbow_flex_l	pro_sup_l
      5.93333330	     -2.89071234	      0.39183720	      7.37367820	     -0.00828592	      0.91844090	      0.11262736	      3.48812201	     -0.58151706	     13.59493164	      7.22164126	      0.12604142	      3.37727429	    -32.09418025	     -7.49999987	      2.81400371	     -5.98012676	     30.65375056	      5.71472972	      0.09974085	      1.30667194	    -33.41461933	     -7.49999987	     -7.11670740	     -5.27718213	     -1.04363916	     54.57277322	      6.17021252	     61.49932290	    137.56214259	    106.19228980	     67.58507913	     17.07029935	     74.90148800	    122.30828742	     70.84203233
      5.95000000	     -2.74210929	      0.35794432	      7.31649817	     -0.00728431	      0.92103868	      0.11200726	      2.79987066	     -0.63266646	     13.61891672	      6.44915121	      0.11255892	      2.76883088	    -31.85034276	     -7.49999987	      2.46268476	     -6.10545120	     30.68483827	      5.11132774	      0.08920950	      0.86475392	    -33.38843502	     -7.49999987	     -7.14246145	     -5.26895868	     -0.83009321	     53.99293467	      6.41999078	     61.91495741	    137.83145091	    106.82577978	     67.11458285	     17.21386042	     75.30671783	    122.30754180	     71.13135317
      5.96666670	     -2.70744113	      0.43660478	      7.29634632	     -0.01024511	      0.91935437	      0.11176043	      2.36845802	     -0.83282270	     13.81701374	      5.63839954	      0.09840864	      2.29526468	    -31.74106194	     -7.49999987	      2.28344717	     -6.06636512	     30.74879148	      4.54083724	      0.07925256	      0.48967126	    -33.33242992	     -7.49999987	     -7.22718302	     -5.50088741	     -0.53576658	     53.82003047	      6.60533972	     61.95716837	    138.37355848	    106.80223222	     67.20186765	     17.53580302	     75.67808097	    122.02618263	     71.02005890
      5.98333330	     -2.55488887	      0.27053319	      7.58506737	     -0.00767221	      0.91816335	      0.10939863	      1.77440414	     -0.78088082	     13.61918556	      4.91669017	      0.08581243	      1.88418575	    -31.56711457	     -7.49999987	      1.84448588	     -6.30474309	     30.95685861	      4.29297174	      0.07492649	      0.45546413	    -33.24664547	     -7.49999987	     -7.44661820	     -5.19393123	     -0.55600470	     53.82789058	      6.39819147	     61.42972915	    138.15377590	    106.71131423	     67.43055073	     17.78492218	     75.53817545	    122.03349190	     71.04349204
      6.00000000	     -2.56813072	      0.39230577	      7.43462325	     -0.00843776	      0.91522670	      0.10803217	      1.62832764	     -1.07727945	     13.67964596	      4.53705261	      0.07918651	      1.80479862	    -31.49186973	     -7.49999987	      1.95841703	     -6.07036605	     30.97634004	      3.68463786	      0.06430906	     -0.10491892	    -33.30282327	     -7.49999987	     -7.61456449	     -5.28870398	     -0.42388429	     53.79376085	      6.62631464	     61.33186357	    138.09035696	    106.85246176	     67.73454049	     17.77525411	     75.42747087	    121.81040890	     70.88073487
      6.01666670	     -2.48877468	      0.45854418	      7.46012371	     -0.00707282	      0.91667403	      0.10852851	      1.33610153	     -1.21777317	     13.71062243	      4.14410577	      0.07232829	      1.51204867	    -31.46678079	     -7.49999987	      1.77795556	     -6.10275680	     31.01598390	      3.17334501	      0.05538532	     -0.48518782	    -33.24938683	     -7.49999987	     -7.68106621	     -5.37156991	     -0.46201699	     53.50093527	      6.68612408	     61.02732654	    138.15506170	    107.07913337	     67.77957352	     17.68258283	     75.08340488	    121.39026901	     70.72943842
      6.03333330	     -2.55614690	      0.38602401	      7.45357821	     -0.00777889	      0.91461050	      0.10765176	      1.44465023	     -1.19420865	     13.82496484	      4.05157135	      0.07071326	      1.60528154	    -31.36342964	     -7.49999987	      1.48433425	     -6.17968915	     30.98546704	      3.18230230	      0.05554165	     -0.25052415	    -33.19300520	     -7.49999987	     -7.60761228	     -5.16088594	     -0.38565062	     53.48446341	      6.76091084	     60.82515242	    138.05650443	    106.96878830	     67.61682117	     17.71589349	     74.54338417	    121.23585285	     70.86815444
      6.05000000	     -2.61022561	      0.20321652	      7.39762238	     -0.00653685	      0.91411890	      0.10669331	      1.57431033	     -1.06003017	     13.88711476	      4.11827154	      0.07187740	      1.89152976	    -31.33892279	     -7.49999987	      1.02524612	     -6.39107139	     30.92898297	      3.31761602	      0.05790332	      0.29148747	    -33.16161511	     -7.49999987	     -7.48515632	     -4.80201293	     -0.44722231	     53.61243086	      6.89353090	     60.88233442	    138.14011919	    106.98443025	     67.40029513	     17.69061853	     74.29194894	    121.24878561	     70.54224970
      6.06666670	     -2.79536667	      0.09022968	      7.34879184	     -0.00713076	      0.91692828	      0.10668102	      1.84920812	     -0.96342330	     13.90187978	      4.07446043	      0.07111275	      2.22542520	    -31.11708062	     -7.49999987	      0.93534613	     -6.50149366	     30.94341776	      3.26813792	      0.05703977	      0.51413737	    -33.16233247	     -7.49999987	     -7.44078717	     -4.60273302	     -0.43322536	     53.72521219	      6.95843718	     61.05007474	    138.22635930	    107.10272651	     67.08933882	     17.64882291	     74.16701950	    121.13670670	     70.50721760
      6.08333330	     -2.87884653	     -0.13001117	      7.28378106	     -0.00372748	      0.91618396	      0.10516912	      1.74326610	     -0.76433481	     14.00779353	      3.97049700	      0.06929825	      2.29077778	    -31.05671393	     -7.49999987	      0.65662852	     -6.76405338	     30.80120401	      3.28851643	      0.05739544	      0.87756672	    -33.01605589	     -7.49999987	     -7.30003173	     -4.28486739	     -0.34046345	     53.46615019	      6.85045765	     61.10937861	    138.46322101	    107.39505794	     66.59091521	     17.79984441	     73.97141658	    120.90732860	     70.63854700
      6.10000000	     -2.98840309	     -0.20542905	      7.17031379	     -0.00169870	      0.91965547	      0.10504097	      1.65704910	     -0.72373604	     13.93665279	      3.84816628	      0.06716317	      2.25818687	    -30.75728331	     -7.49999987	      0.46728415	     -6.86246400	     30.68676428	      3.05837264	      0.05337867	      0.89242879	    -32.94096479	     -7.49999987	     -7.18398609	     -4.19235072	     -0.27312049	     53.16466337	      7.00262310	     61.76370739	    138.63858129	    107.37895633	     66.01010413	     17.95724003	     74.26799206	    120.95906198	     70.90035551
      6.11666670	     -3.04332852	     -0.08381523	      7.06672958	      0.00035389	      0.91962765	      0.10501422	      1.33469492	     -0.91954645	     14.04582027	      3.55828893	      0.06210386	      2.14896184	    -30.58238029	     -7.49999987	      0.53386072	     -6.72549887	     30.60447487	      2.60546360	      0.04547392	      0.51894360	    -32.89385595	     -7.49999987	     -7.19809291	     -4.41445596	      0.03737020	     52.78774383	      6.86972830	     61.74257185	    138.45112672	    107.53347418	     65.63549044	     18.31329453	     74.69864222	    121.05126309	     70.82384293
      6.13333330	     -3.04797001	      0.04475553	      6.99311478	      0.00253508	      0.91926422	      0.10472872	      1.04370151	     -1.07081930	     14.07807143	      3.38072545	      0.05900479	      1.98790668	    -30.39840637	     -7.49999987	      0.47754077	     -6.63295905	     30.48085771	      2.31570906	      0.04041675	      0.27038156	    -32.79784743	     -7.49999987	     -7.24732684	     -4.64536419	      0.27619087	     52.42753831	      6.77471646	     61.73517511	    138.35000072	    107.54508607	     65.36013376	     18.65923587	     75.19949076	    121.15609332	     70.43325585
      6.15000000	     -3.07136059	      0.03265864	      6.90495658	      0.00102878	      0.91422718	      0.10432687	      1.06565920	     -1.06731748	     14.10009674	      3.42917627	      0.05985042	      2.00739746	    -30.40985995	     -7.49999987	      0.24351717	     -6.65767799	     30.49866774	      2.36157082	      0.04121719	      0.49589000	    -32.88555633	     -7.49999987	     -7.10715274	     -4.60379446	      0.24768751	     52.40504661	      6.81916978	     61.72336177	    138.31357128	    107.54366577	     65.38813410	     18.73142863	     75.19289620	    121.17371653	     70.43711718
